<svg width="48" height="50" viewBox="0 0 48 50" fill="none" xmlns="http://www.w3.org/2000/svg">
<path d="M2.9733 17.793H28.5517V28.878C28.5517 29.6692 28.2385 30.428 27.6809 30.9875C27.1234 31.5471 26.3671 31.8616 25.5784 31.8619H0V20.7756C0 19.9845 0.313257 19.2259 0.870858 18.6665C1.42846 18.1072 2.18473 17.793 2.9733 17.793Z" fill="#4FBDBA"/>
<path fill-rule="evenodd" clip-rule="evenodd" d="M31.8621 17.3794H44.3853C44.8604 17.3798 45.3308 17.4727 45.7696 17.6527C46.2083 17.8327 46.6069 18.0963 46.9426 18.4285C47.2782 18.7607 47.5444 19.155 47.7258 19.5889C47.9072 20.0227 48.0004 20.4876 48 20.957L47.35 20.9564H48V20.957V31.8621H35.4799C34.5204 31.8621 33.6002 31.4856 32.9217 30.8152C32.2432 30.1449 31.8621 29.2357 31.8621 28.2877V17.3794ZM33.162 18.6638V28.2877C33.162 28.8951 33.4062 29.4775 33.8409 29.907C34.2756 30.3365 34.8652 30.5778 35.4799 30.5778H46.7V20.9559C46.7003 20.6551 46.6406 20.3573 46.5244 20.0793C46.4081 19.8014 46.2376 19.5488 46.0226 19.3359C45.8075 19.1231 45.5521 18.9542 45.271 18.8389C44.99 18.7236 44.6887 18.6641 44.3844 18.6638H33.162Z" fill="#4FBDBA"/>
<path fill-rule="evenodd" clip-rule="evenodd" d="M16.5517 34.7588H44.3965C45.3522 34.7588 46.2688 35.1462 46.9446 35.8358C47.6203 36.5254 48 37.4608 48 38.436V49.6553H20.1621C19.6883 49.6563 19.2189 49.5618 18.7809 49.3774C18.3426 49.1929 17.9443 48.9219 17.6088 48.58C17.2733 48.2381 17.0073 47.832 16.8259 47.3849C16.6445 46.9381 16.5514 46.4591 16.5517 45.9755M16.5517 34.7588V35.4194V34.7588ZM17.8465 36.0801L17.8465 45.976C17.8463 46.286 17.906 46.593 18.0222 46.8794C18.1384 47.1658 18.3089 47.426 18.5238 47.6451C18.7387 47.8641 18.9939 48.0377 19.2747 48.156C19.5555 48.2742 19.8565 48.3347 20.1602 48.334L20.1616 48.334L46.7052 48.334V38.436C46.7052 37.8112 46.462 37.212 46.029 36.7701C45.596 36.3283 45.0088 36.0801 44.3965 36.0801H17.8465ZM16.5517 35.4194V45.9753V35.4194Z" fill="#4FBDBA"/>
<path d="M2.98598 35.1724H13.2414V46.2587C13.2414 47.0498 12.9268 47.8084 12.3668 48.3677C11.8068 48.9271 11.0473 49.2413 10.2554 49.2413H0V38.1563C-7.59156e-08 37.3651 0.314552 36.6063 0.874494 36.0468C1.43444 35.4872 2.19393 35.1727 2.98598 35.1724Z" fill="#4FBDBA"/>
<path d="M2.97397 0H47.5862V11.0864C47.5862 11.8774 47.2729 12.636 46.7151 13.1954C46.1574 13.7547 45.401 14.069 44.6122 14.069H0V2.98258C0 2.19155 0.313329 1.43292 0.871057 0.873578C1.42878 0.314236 2.18523 0 2.97397 0Z" fill="#4FBDBA"/>
</svg>
