<svg width="213" height="50" viewBox="0 0 213 50" fill="none" xmlns="http://www.w3.org/2000/svg">
<path d="M2.9733 17.7931H28.5517V28.8782C28.5517 29.6693 28.2385 30.4281 27.6809 30.9876C27.1234 31.5472 26.3671 31.8617 25.5784 31.8621H0V20.7757C0 19.9846 0.313257 19.226 0.870858 18.6667C1.42846 18.1073 2.18473 17.7931 2.9733 17.7931Z" fill="#D9D9D9"/>
<path fill-rule="evenodd" clip-rule="evenodd" d="M31.8621 17.3793H44.3853C44.8604 17.3797 45.3308 17.4726 45.7696 17.6526C46.2083 17.8326 46.6069 18.0962 46.9426 18.4284C47.2782 18.7607 47.5444 19.1549 47.7258 19.5888C47.9072 20.0226 48.0004 20.4875 48 20.9569L47.35 20.9563H48V20.9569V31.8621H35.4799C34.5204 31.8621 33.6002 31.4855 32.9217 30.8151C32.2432 30.1448 31.8621 29.2356 31.8621 28.2876V17.3793ZM33.162 18.6637V28.2876C33.162 28.895 33.4062 29.4775 33.8409 29.9069C34.2756 30.3364 34.8652 30.5777 35.4799 30.5777H46.7V20.9558C46.7003 20.655 46.6406 20.3572 46.5243 20.0792C46.4081 19.8013 46.2376 19.5487 46.0226 19.3359C45.8075 19.123 45.5521 18.9541 45.271 18.8388C44.99 18.7235 44.6887 18.664 44.3844 18.6637H33.162Z" fill="#D9D9D9"/>
<path fill-rule="evenodd" clip-rule="evenodd" d="M16.5517 34.7586H44.3965C45.3522 34.7586 46.2688 35.1461 46.9445 35.8357C47.6203 36.5253 48 37.4606 48 38.4359V49.6552H20.1621C19.6883 49.6561 19.2189 49.5617 18.7809 49.3773C18.3426 49.1927 17.9443 48.9218 17.6088 48.5799C17.2733 48.2379 17.0072 47.8318 16.8258 47.3848C16.6445 46.9379 16.5514 46.459 16.5517 45.9753M16.5517 34.7586V35.4193V34.7586ZM17.8465 36.08L17.8465 45.9759C17.8462 46.2859 17.9059 46.5929 18.0221 46.8793C18.1384 47.1657 18.3088 47.4259 18.5238 47.6449C18.7387 47.864 18.9939 48.0376 19.2747 48.1558C19.5555 48.274 19.8564 48.3345 20.1602 48.3339L20.1616 48.3339L46.7052 48.3339V38.4359C46.7052 37.811 46.4619 37.2118 46.029 36.77C45.596 36.3282 45.0088 36.08 44.3965 36.08H17.8465ZM16.5517 35.4193V45.9751V35.4193Z" fill="#D9D9D9"/>
<path d="M2.98598 35.1724H13.2414V46.2588C13.2414 47.0498 12.9268 47.8084 12.3668 48.3678C11.8068 48.9271 11.0473 49.2414 10.2554 49.2414H0V38.1563C-7.59156e-08 37.3651 0.314552 36.6064 0.874494 36.0468C1.43444 35.4873 2.19393 35.1727 2.98598 35.1724Z" fill="#D9D9D9"/>
<path d="M2.97397 0H47.5862V11.0864C47.5862 11.8774 47.2729 12.636 46.7151 13.1954C46.1574 13.7547 45.401 14.069 44.6122 14.069H0V2.98258C0 2.19155 0.313329 1.43292 0.871057 0.873578C1.42878 0.314236 2.18523 0 2.97397 0Z" fill="#D9D9D9"/>
<path d="M82.5371 32L81.502 28.6016H76.2969L75.2617 32H72L77.0391 17.6641H80.7402L85.7988 32H82.5371ZM80.7793 26.0625C79.8223 22.9831 79.2819 21.2415 79.1582 20.8379C79.041 20.4342 78.9564 20.1152 78.9043 19.8809C78.6895 20.7142 78.0742 22.7747 77.0586 26.0625H80.7793ZM90.3496 32H87.3711V16.8047H90.3496V32ZM100.418 32L99.8418 30.5156H99.7637C99.2624 31.1471 98.7448 31.5866 98.2109 31.834C97.6836 32.0749 96.9935 32.1953 96.1406 32.1953C95.0924 32.1953 94.2656 31.8958 93.6602 31.2969C93.0612 30.6979 92.7617 29.8451 92.7617 28.7383C92.7617 27.5794 93.1654 26.7266 93.9727 26.1797C94.7865 25.6263 96.0104 25.3203 97.6445 25.2617L99.5391 25.2031V24.7246C99.5391 23.6178 98.9727 23.0645 97.8398 23.0645C96.9674 23.0645 95.9421 23.3281 94.7637 23.8555L93.7773 21.8438C95.0339 21.1862 96.4271 20.8574 97.957 20.8574C99.4219 20.8574 100.545 21.1764 101.326 21.8145C102.107 22.4525 102.498 23.4225 102.498 24.7246V32H100.418ZM99.5391 26.9414L98.3867 26.9805C97.5208 27.0065 96.8763 27.1628 96.4531 27.4492C96.0299 27.7357 95.8184 28.1719 95.8184 28.7578C95.8184 29.5977 96.3001 30.0176 97.2637 30.0176C97.9538 30.0176 98.5039 29.819 98.9141 29.4219C99.3307 29.0247 99.5391 28.4974 99.5391 27.8398V26.9414ZM115.652 32H112.674V25.623C112.674 24.8353 112.534 24.2461 112.254 23.8555C111.974 23.4583 111.528 23.2598 110.916 23.2598C110.083 23.2598 109.48 23.5397 109.109 24.0996C108.738 24.653 108.553 25.5742 108.553 26.8633V32H105.574V21.082H107.85L108.25 22.4785H108.416C108.748 21.9512 109.204 21.554 109.783 21.2871C110.369 21.0137 111.033 20.877 111.775 20.877C113.045 20.877 114.008 21.222 114.666 21.9121C115.324 22.5957 115.652 23.5853 115.652 24.8809V32ZM130.193 32L126.756 20.7988H126.668C126.792 23.0775 126.854 24.5977 126.854 25.3594V32H124.148V17.7227H128.27L131.648 28.6406H131.707L135.291 17.7227H139.412V32H136.59V25.2422C136.59 24.9232 136.593 24.5553 136.6 24.1387C136.613 23.722 136.658 22.6152 136.736 20.8184H136.648L132.967 32H130.193ZM142.361 30.6035C142.361 30.0566 142.508 29.6432 142.801 29.3633C143.094 29.0833 143.52 28.9434 144.08 28.9434C144.62 28.9434 145.037 29.0866 145.33 29.373C145.63 29.6595 145.779 30.0697 145.779 30.6035C145.779 31.1178 145.63 31.5247 145.33 31.8242C145.031 32.1172 144.614 32.2637 144.08 32.2637C143.533 32.2637 143.11 32.1204 142.811 31.834C142.511 31.541 142.361 31.1309 142.361 30.6035ZM156.893 32H153.914V17.7227H162.098V20.2031H156.893V23.8848H161.736V26.3555H156.893V32ZM167.635 32H164.656V16.8047H167.635V32ZM173.143 26.5215C173.143 27.6022 173.318 28.4193 173.67 28.9727C174.028 29.526 174.607 29.8027 175.408 29.8027C176.202 29.8027 176.772 29.5293 177.117 28.9824C177.469 28.429 177.645 27.6087 177.645 26.5215C177.645 25.4408 177.469 24.6302 177.117 24.0898C176.766 23.5495 176.189 23.2793 175.389 23.2793C174.594 23.2793 174.021 23.5495 173.67 24.0898C173.318 24.6237 173.143 25.4342 173.143 26.5215ZM180.691 26.5215C180.691 28.2988 180.223 29.6888 179.285 30.6914C178.348 31.694 177.042 32.1953 175.369 32.1953C174.321 32.1953 173.396 31.9674 172.596 31.5117C171.795 31.0495 171.18 30.3887 170.75 29.5293C170.32 28.6699 170.105 27.6673 170.105 26.5215C170.105 24.7376 170.571 23.3509 171.502 22.3613C172.433 21.3717 173.742 20.877 175.428 20.877C176.476 20.877 177.4 21.1048 178.201 21.5605C179.002 22.0163 179.617 22.6706 180.047 23.5234C180.477 24.3763 180.691 25.3757 180.691 26.5215ZM189.246 20.877C189.65 20.877 189.985 20.9062 190.252 20.9648L190.027 23.7578C189.786 23.6927 189.493 23.6602 189.148 23.6602C188.198 23.6602 187.456 23.9043 186.922 24.3926C186.395 24.8809 186.131 25.5645 186.131 26.4434V32H183.152V21.082H185.408L185.848 22.918H185.994C186.333 22.306 186.788 21.8145 187.361 21.4434C187.941 21.0658 188.569 20.877 189.246 20.877ZM196.756 22.9961C196.124 22.9961 195.63 23.1979 195.271 23.6016C194.913 23.9987 194.708 24.5651 194.656 25.3008H198.836C198.823 24.5651 198.631 23.9987 198.26 23.6016C197.889 23.1979 197.387 22.9961 196.756 22.9961ZM197.176 32.1953C195.418 32.1953 194.044 31.7103 193.055 30.7402C192.065 29.7702 191.57 28.3965 191.57 26.6191C191.57 24.7897 192.026 23.377 192.938 22.3809C193.855 21.3783 195.122 20.877 196.736 20.877C198.279 20.877 199.48 21.3164 200.34 22.1953C201.199 23.0742 201.629 24.2884 201.629 25.8379V27.2832H194.588C194.62 28.1296 194.871 28.7904 195.34 29.2656C195.809 29.7409 196.466 29.9785 197.312 29.9785C197.97 29.9785 198.592 29.9102 199.178 29.7734C199.764 29.6367 200.376 29.4186 201.014 29.1191V31.4238C200.493 31.6842 199.936 31.8763 199.344 32C198.751 32.1302 198.029 32.1953 197.176 32.1953ZM211.668 28.7578C211.668 29.8776 211.277 30.7305 210.496 31.3164C209.721 31.9023 208.559 32.1953 207.01 32.1953C206.215 32.1953 205.538 32.14 204.979 32.0293C204.419 31.9251 203.895 31.7689 203.406 31.5605V29.0996C203.96 29.36 204.581 29.5781 205.271 29.7539C205.968 29.9297 206.58 30.0176 207.107 30.0176C208.188 30.0176 208.729 29.7051 208.729 29.0801C208.729 28.8457 208.657 28.6569 208.514 28.5137C208.37 28.3639 208.123 28.1979 207.771 28.0156C207.42 27.8268 206.951 27.6087 206.365 27.3613C205.525 27.0098 204.907 26.6842 204.51 26.3848C204.119 26.0853 203.833 25.7435 203.65 25.3594C203.475 24.9688 203.387 24.4902 203.387 23.9238C203.387 22.9538 203.761 22.2051 204.51 21.6777C205.265 21.1439 206.333 20.877 207.713 20.877C209.028 20.877 210.307 21.1634 211.551 21.7363L210.652 23.8848C210.105 23.6504 209.594 23.4583 209.119 23.3086C208.644 23.1589 208.159 23.084 207.664 23.084C206.785 23.084 206.346 23.3216 206.346 23.7969C206.346 24.0638 206.486 24.2949 206.766 24.4902C207.052 24.6855 207.674 24.9753 208.631 25.3594C209.484 25.7044 210.109 26.0267 210.506 26.3262C210.903 26.6257 211.196 26.9707 211.385 27.3613C211.574 27.752 211.668 28.2174 211.668 28.7578Z" fill="white"/>
</svg>
