<svg width="64" height="64" viewBox="0 0 64 64" fill="none" xmlns="http://www.w3.org/2000/svg">
<path d="M31.44 30.6667H25.92V21.84H32.5067C35.8667 21.84 37.7333 23.3334 37.7333 26.08C37.7333 29.0667 35.52 30.6667 31.44 30.6667ZM32.4267 33.68H25.92V43.3867H32.7467C36.9067 43.3867 39.0933 41.7067 39.0933 38.5067C39.0933 35.3067 36.8267 33.68 32.4267 33.68ZM58.6667 14.16V49.84C58.6667 54.6667 54.6667 58.6667 49.84 58.6667H14.16C9.33334 58.6667 5.33334 54.6667 5.33334 49.84V14.16C5.33334 9.33337 9.33334 5.33337 14.16 5.33337H49.84C54.6667 5.33337 58.6667 9.33337 58.6667 14.16ZM42.6667 38.6667C42.6667 34.9867 40.2133 32.3467 36.4533 31.8667V31.7067C39.12 31.2267 41.2267 28.56 41.2267 25.68C41.2267 21.5467 38.0267 18.8 33.3333 18.8H22.48V46.4267H33.2533C39.1467 46.4267 42.6667 43.52 42.6667 38.6667Z" fill="#464444"/>
</svg>
