<svg width="64" height="64" viewBox="0 0 64 64" fill="none" xmlns="http://www.w3.org/2000/svg">
<g clip-path="url(#clip0_68_106)">
<path d="M20.0053 0H26.88V2.87467H22.88V5.74933H26.88V8.624H20.0053V0ZM28.2533 0H35.1307V2.50133H31.1307V3H35.1307V8.74933H28.2533V6.12533H32.2533V5.624H28.2533V0ZM36.5067 0H43.3787V2.50133H39.3787V3H43.3787V8.74933H36.5067V6.12533H40.5067V5.624H36.5067V0Z" fill="#464444"/>
<path fill-rule="evenodd" clip-rule="evenodd" d="M31.976 64L13.4587 58.8586L8 12.5786H56L50.544 58.8533L31.976 64ZM18.792 33.5279L19.3013 39.2026H38.9733L38.3147 46.5626L31.984 48.2746H31.9787L25.6587 46.5679L25.2533 42.0426H19.5547L20.3493 50.9546L31.976 54.1813L43.6213 50.9546L45.04 35.0506L45.1787 33.5279L46.2027 22.0373H17.7707L18.288 27.7146H39.984L39.4667 33.5279H18.792Z" fill="#464444"/>
</g>
<defs>
<clipPath id="clip0_68_106">
<rect width="64" height="64" fill="white"/>
</clipPath>
</defs>
</svg>
