<svg width="48" height="64" viewBox="0 0 48 64" fill="none" xmlns="http://www.w3.org/2000/svg">
<path d="M5.54666 0H8.432V2.85067H11.072V0H13.9573V8.62933H11.072V5.74133H8.432V8.62933H5.54933L5.54666 0ZM17.7493 2.86133H15.2107V0H23.176V2.86133H20.6347V8.62933H17.7493V2.86133ZM24.44 0H27.448L29.2987 3.032L31.1467 0H34.1547V8.62933H31.2827V4.352L29.2987 7.42133H29.248L27.2613 4.35467V8.62933H24.44V0ZM35.5893 0H38.4773V5.77867H42.5307V8.632H35.5893V0Z" fill="#464444"/>
<path fill-rule="evenodd" clip-rule="evenodd" d="M5.456 58.8586L0 12.5786H48L42.5413 58.8533L23.9733 64L5.456 58.8586ZM16.488 33.5253L15.9707 27.7119H37.6907L38.1973 22.0373H9.77067L11.3013 39.2026H30.9733L30.3147 46.5626L23.984 48.2746H23.9787L17.6587 46.5679L17.2533 42.0426H11.552L12.3467 50.9546L23.9733 54.1813L35.6187 50.9546L37.0373 35.0506L37.176 33.5279H16.488V33.5253Z" fill="#464444"/>
</svg>
