<svg width="64" height="64" viewBox="0 0 64 64" fill="none" xmlns="http://www.w3.org/2000/svg">
<g clip-path="url(#clip0_68_166)">
<path d="M47.498 60.01C47.26 60.136 47.28 60.176 47.508 60.06C47.5783 60.0313 47.6427 59.99 47.698 59.938C47.698 59.896 47.698 59.896 47.498 60.01ZM47.978 59.75C47.864 59.844 47.864 59.844 48 59.782C48.0503 59.7585 48.0962 59.7267 48.136 59.688C48.136 59.634 48.104 59.646 47.978 59.75ZM48.29 59.562C48.176 59.656 48.176 59.656 48.312 59.594C48.3625 59.57 48.4085 59.5375 48.448 59.498C48.448 59.448 48.416 59.458 48.29 59.562ZM48.606 59.376C48.492 59.47 48.492 59.47 48.624 59.406C48.698 59.366 48.76 59.324 48.76 59.312C48.76 59.262 48.728 59.272 48.606 59.376ZM49.032 59.094C48.814 59.24 48.738 59.334 48.938 59.23C49.072 59.148 49.3 58.968 49.26 58.968C49.174 59 49.102 59.054 49.03 59.094H49.032ZM29.906 0.0220243C29.76 0.0320243 29.322 0.0720243 28.938 0.104024C19.842 0.928024 11.332 5.82402 5.938 13.366C2.95713 17.5025 1.01952 22.2978 0.29 27.344C0.032 29.104 0 29.624 0 32.01C0 34.394 0.032 34.906 0.29 36.666C2.032 48.688 10.584 58.78 22.176 62.52C24.262 63.186 26.448 63.646 28.938 63.928C29.906 64.032 34.092 64.032 35.06 63.928C39.364 63.448 42.998 62.386 46.594 60.552C47.146 60.272 47.25 60.198 47.176 60.136C45.4218 57.8172 43.6824 55.4871 41.958 53.146L36.844 46.24L30.438 36.75C28.3072 33.5726 26.1544 30.4098 23.98 27.262C23.958 27.262 23.93 31.48 23.918 36.624C23.896 45.634 23.896 46 23.782 46.208C23.6727 46.4593 23.4768 46.663 23.23 46.782C23.032 46.876 22.854 46.896 21.908 46.896H20.826L20.544 46.72C20.3674 46.6067 20.2239 46.4487 20.128 46.262L19.992 45.98L20.002 33.438L20.024 20.896L20.222 20.646C20.3485 20.4923 20.5041 20.3652 20.68 20.272C20.942 20.146 21.046 20.126 22.128 20.126C23.398 20.126 23.608 20.176 23.942 20.542C26.5371 24.4018 29.1098 28.2765 31.66 32.166C35.818 38.47 41.494 47.072 44.284 51.292L49.358 58.97L49.608 58.804C52.0465 57.1836 54.2563 55.2429 56.178 53.034C60.2091 48.4202 62.8248 42.7422 63.712 36.68C63.97 34.92 64.002 34.398 64.002 32.014C64.002 29.628 63.97 29.118 63.712 27.358C61.97 15.336 53.418 5.24402 41.826 1.50202C39.6596 0.815866 37.4297 0.34886 35.17 0.108024C34.564 0.0460243 30.428 -0.0279757 29.908 0.0260243L29.906 0.0220243ZM43 19.376C43.1488 19.4491 43.2815 19.5511 43.3904 19.6761C43.4992 19.8011 43.5821 19.9466 43.634 20.104C43.688 20.272 43.698 23.75 43.688 31.584L43.666 42.832L41.688 39.792L39.698 36.75V28.584C39.698 23.29 39.72 20.322 39.748 20.176C39.8459 19.8413 40.0705 19.5579 40.374 19.386C40.622 19.26 40.718 19.25 41.708 19.25C42.634 19.25 42.792 19.26 43 19.376Z" fill="#464444"/>
</g>
<defs>
<clipPath id="clip0_68_166">
<rect width="64" height="64" fill="white"/>
</clipPath>
</defs>
</svg>
