<svg width="64" height="64" viewBox="0 0 64 64" fill="none" xmlns="http://www.w3.org/2000/svg">
<path d="M32 5.33337C35.5019 5.33337 38.9695 6.02313 42.2049 7.36325C45.4402 8.70338 48.38 10.6676 50.8562 13.1439C53.3324 15.6201 55.2967 18.5598 56.6368 21.7951C57.9769 25.0305 58.6667 28.4981 58.6667 32C58.6667 39.0725 55.8572 45.8553 50.8562 50.8562C45.8552 55.8572 39.0724 58.6667 32 58.6667C28.4981 58.6667 25.0305 57.977 21.7951 56.6368C18.5598 55.2967 15.6201 53.3325 13.1438 50.8562C8.14285 45.8553 5.33334 39.0725 5.33334 32C5.33334 24.9276 8.14285 18.1448 13.1438 13.1439C18.1448 8.14289 24.9276 5.33337 32 5.33337ZM26.6667 40.88C27.0933 42.32 27.04 43.6534 26.6667 44.88C26.6667 45.0134 26.56 45.1467 26.5067 45.3334C26.4533 45.3334 26.4 45.52 26.32 45.6534C26.0267 46.2934 25.6 46.9067 25.0933 47.44C23.5467 49.1467 21.3333 49.7867 20.4533 49.2534C19.44 48.6667 20 46.2667 21.76 44.3734C23.68 42.3467 26.4533 41.0134 26.4533 41.0134L26.6667 40.88ZM48.72 16.7467C47.52 12 39.6533 10.4534 32.24 13.0934C27.8133 14.6667 23.0133 17.12 19.5733 20.3467C15.4933 24.1867 14.8267 27.52 15.0933 28.9067C16 33.8134 22.7733 37.04 25.5467 39.4134V39.44C24.7467 39.84 18.7733 42.8534 17.3333 45.9467C15.8933 49.2 17.6 51.5467 18.6667 51.8667C22.24 52.8267 25.84 51.0934 27.76 48.1867C29.6267 45.4134 29.4933 41.8134 28.6667 40C29.7867 39.7334 31.0933 39.6 32.7467 39.7867C37.44 40.3467 38.3467 43.2534 38.16 44.48C38 45.7067 37.0133 46.3734 36.6933 46.5867C36.3733 46.7734 36.2667 46.8534 36.2933 47.0134C36.32 47.2267 36.48 47.2267 36.7467 47.1734C37.1467 47.0934 39.2267 46.1867 39.3067 43.92C39.4133 41.04 36.6667 37.84 31.8133 37.92C29.8133 37.9734 28.56 38.16 27.6533 38.5067L27.44 38.2667C24.4267 35.0667 18.88 32.8 19.12 28.48C19.2 26.9067 19.7333 22.8 29.7867 17.7867C38 13.68 44.5867 14.8 45.7333 17.3334C47.36 20.88 42.2133 27.52 33.68 28.48C30.4267 28.8534 28.6933 27.5734 28.2667 27.12C27.8133 26.6667 27.76 26.5867 27.6 26.6667C27.3067 26.8534 27.4933 27.28 27.6 27.5467C27.84 28.2134 28.9067 29.3334 30.6667 29.9734C32.24 30.48 36.08 30.7734 40.6933 28.9867C45.8667 26.9867 49.92 21.4134 48.72 16.7467Z" fill="#464444"/>
</svg>
