<svg width="64" height="64" viewBox="0 0 64 64" fill="none" xmlns="http://www.w3.org/2000/svg">
<path d="M32 16C24.88 16 20.4533 19.5467 18.6667 26.6667C21.3333 23.12 24.4533 21.7867 28 22.6667C30.0267 23.1733 31.4933 24.64 33.0933 26.2667C35.7067 28.9333 38.6667 32 45.3333 32C52.4533 32 56.88 28.4533 58.6667 21.3333C56 24.88 52.88 26.2133 49.3333 25.3333C47.3067 24.8267 45.8667 23.36 44.24 21.7333C41.6267 19.0667 38.6667 16 32 16ZM18.6667 32C11.5467 32 7.12 35.5467 5.33333 42.6667C8 39.12 11.12 37.7867 14.6667 38.6667C16.6933 39.1733 18.1333 40.64 19.76 42.2667C22.3733 44.9333 25.3333 48 32 48C39.12 48 43.5467 44.4533 45.3333 37.3333C42.6667 40.88 39.5467 42.2133 36 41.3333C33.9733 40.8267 32.5333 39.36 30.9067 37.7333C28.2933 35.0667 25.3333 32 18.6667 32Z" fill="#464444"/>
</svg>
