<svg width="49" height="50" viewBox="0 0 49 50" fill="none" xmlns="http://www.w3.org/2000/svg">
<path d="M2.9733 17.7931H28.5517V28.8782C28.5517 29.6693 28.2385 30.4281 27.6809 30.9876C27.1234 31.5472 26.3671 31.8617 25.5784 31.8621H0V20.7757C0 19.9846 0.313257 19.226 0.870858 18.6667C1.42846 18.1073 2.18473 17.7931 2.9733 17.7931Z" fill="#D9D9D9"/>
<path fill-rule="evenodd" clip-rule="evenodd" d="M32 17H44.5233C44.9984 17.0004 45.4687 17.0933 45.9075 17.2733C46.3463 17.4533 46.7449 17.7169 47.0805 18.0491C47.4162 18.3814 47.6823 18.7756 47.8637 19.2095C48.0452 19.6433 48.1383 20.1082 48.1379 20.5776L47.4879 20.577H48.1379V20.5776V31.4828H35.6178C34.6583 31.4828 33.7381 31.1062 33.0596 30.4358C32.3812 29.7655 32 28.8563 32 27.9083V17ZM33.3 18.2844V27.9083C33.3 28.5157 33.5442 29.0982 33.9789 29.5276C34.4135 29.9571 35.0031 30.1984 35.6178 30.1984H46.8379V20.5765C46.8382 20.2757 46.7785 19.9779 46.6623 19.6999C46.5461 19.422 46.3755 19.1694 46.1605 18.9566C45.9455 18.7437 45.6901 18.5748 45.409 18.4595C45.1279 18.3442 44.8267 18.2847 44.5224 18.2844H33.3Z" fill="#D9D9D9"/>
<path fill-rule="evenodd" clip-rule="evenodd" d="M16.5517 34.7586H44.3965C45.3522 34.7586 46.2688 35.1461 46.9445 35.8357C47.6203 36.5253 48 37.4606 48 38.4359V49.6552H20.1621C19.6883 49.6561 19.2189 49.5617 18.7809 49.3773C18.3426 49.1927 17.9443 48.9218 17.6088 48.5799C17.2733 48.2379 17.0072 47.8318 16.8258 47.3848C16.6445 46.9379 16.5514 46.459 16.5517 45.9753M16.5517 34.7586V35.4193V34.7586ZM17.8465 36.08L17.8465 45.9759C17.8462 46.2859 17.9059 46.5929 18.0221 46.8793C18.1384 47.1657 18.3088 47.4259 18.5238 47.6449C18.7387 47.864 18.9939 48.0376 19.2747 48.1558C19.5555 48.274 19.8564 48.3345 20.1602 48.3339L20.1616 48.3339L46.7052 48.3339V38.4359C46.7052 37.811 46.4619 37.2118 46.029 36.77C45.596 36.3282 45.0088 36.08 44.3965 36.08H17.8465ZM16.5517 35.4193V45.9751V35.4193Z" fill="#D9D9D9"/>
<path d="M2.98598 35.1724H13.2414V46.2588C13.2414 47.0498 12.9268 47.8084 12.3668 48.3678C11.8068 48.9271 11.0473 49.2414 10.2554 49.2414H0V38.1563C-7.59156e-08 37.3651 0.314552 36.6064 0.874494 36.0468C1.43444 35.4873 2.19393 35.1727 2.98598 35.1724Z" fill="#D9D9D9"/>
<path d="M2.97397 0H47.5862V11.0864C47.5862 11.8774 47.2729 12.636 46.7151 13.1954C46.1574 13.7547 45.401 14.069 44.6122 14.069H0V2.98258C0 2.19155 0.313329 1.43292 0.871057 0.873578C1.42878 0.314236 2.18523 0 2.97397 0Z" fill="#D9D9D9"/>
</svg>
