<svg width="152" height="25" viewBox="0 0 152 25" fill="none" xmlns="http://www.w3.org/2000/svg">
<path d="M13.6504 20.0921L21.9368 25L19.7378 15.75L27.0589 9.52632L17.4182 8.72368L13.6504 0L9.88258 8.72368L0.241852 9.52632L7.56291 15.75L5.36391 25L13.6504 20.0921Z" fill="#4FBDBA"/>
<path d="M76 20.0921L84.2865 25L82.0875 15.75L89.4085 9.52632L79.7678 8.72368L76 0L72.2322 8.72368L62.5915 9.52632L69.9125 15.75L67.7135 25L76 20.0921Z" fill="#4FBDBA"/>
<path d="M44.8252 20.0921L53.1116 25L50.9126 15.75L58.2337 9.52632L48.593 8.72368L44.8252 0L41.0574 8.72368L31.4167 9.52632L38.7377 15.75L36.5387 25L44.8252 20.0921Z" fill="#4FBDBA"/>
<path d="M107.175 20.0921L115.461 25L113.262 15.75L120.583 9.52632L110.943 8.72368L107.175 0L103.407 8.72368L93.7663 9.52632L101.087 15.75L98.8884 25L107.175 20.0921Z" fill="#4FBDBA"/>
<path d="M138.35 20.0921L146.636 25L144.437 15.75L151.758 9.52632L142.117 8.72368L138.35 0L134.582 8.72368L124.941 9.52632L132.262 15.75L130.063 25L138.35 20.0921Z" fill="#4FBDBA"/>
</svg>
