<svg width="31" height="24" viewBox="0 0 31 24" fill="none" xmlns="http://www.w3.org/2000/svg">
<path d="M7.85502 16.5046V5.16919H21.373L22.8161 3.69226H6.39362V16.5046H7.85502Z" fill="#4FBDBA"/>
<path d="M4.56687 1.84616H26.4879V16.6154H28.3147V1.38462C28.3147 1.0174 28.1703 0.665212 27.9134 0.405545C27.6564 0.145879 27.308 0 26.9446 0H4.11018C3.74681 0 3.39833 0.145879 3.14139 0.405545C2.88446 0.665212 2.74011 1.0174 2.74011 1.38462V16.6154H4.56687V1.84616Z" fill="#4FBDBA"/>
<path d="M0 18.4615V21.6C0 22.2365 0.250199 22.847 0.695557 23.2971C1.14091 23.7472 1.74495 24 2.37478 24H28.6252C29.2551 24 29.8591 23.7472 30.3044 23.2971C30.7498 22.847 31 22.2365 31 21.6V18.4615H0ZM29.2281 21.6C29.2281 21.7469 29.1703 21.8878 29.0675 21.9916C28.9648 22.0955 28.8254 22.1539 28.68 22.1539H2.33824C2.1929 22.1539 2.05351 22.0955 1.95073 21.9916C1.84796 21.8878 1.79022 21.7469 1.79022 21.6V19.8739H10.8783C10.9925 20.1461 11.1831 20.3787 11.4266 20.5427C11.6701 20.7068 11.9558 20.7951 12.2484 20.7969H18.7608C19.0534 20.7951 19.3391 20.7068 19.5825 20.5427C19.826 20.3787 20.0166 20.1461 20.1308 19.8739H29.2281V21.6Z" fill="#4FBDBA"/>
</svg>
