<svg width="24" height="24" viewBox="0 0 24 24" fill="none" xmlns="http://www.w3.org/2000/svg">
<path d="M22.1538 0H1.84615C1.35652 0 0.886947 0.229869 0.540726 0.63904C0.194505 1.04821 0 1.60316 0 2.18182V21.8182C0 22.3968 0.194505 22.9518 0.540726 23.361C0.886947 23.7701 1.35652 24 1.84615 24H22.1538C22.6435 24 23.1131 23.7701 23.4593 23.361C23.8055 22.9518 24 22.3968 24 21.8182V2.18182C24 1.60316 23.8055 1.04821 23.4593 0.63904C23.1131 0.229869 22.6435 0 22.1538 0ZM22.1538 2.18182V7.63636H1.84615V2.18182H22.1538ZM1.84615 9.81818H8.30769V21.8182H1.84615V9.81818ZM22.1538 21.8182H10.1538V9.81818H22.1538V21.8182Z" fill="#4FBDBA"/>
</svg>
