<svg width="27" height="24" viewBox="0 0 27 24" fill="none" xmlns="http://www.w3.org/2000/svg">
<path d="M17.1817 24H4.9095V21.6008H17.1817V24ZM25.7722 2.39916L19.9613 9.54266L19.6913 9.86655L12.7821 18.4915C12.5541 18.7144 12.2833 18.8913 11.9854 19.0119C11.6874 19.1325 11.3681 19.1946 11.0456 19.1946C10.7231 19.1946 10.4037 19.1325 10.1058 19.0119C9.80784 18.8913 9.53712 18.7144 9.30908 18.4915C9.08103 18.2686 8.90014 18.004 8.77673 17.7128C8.65331 17.4215 8.58979 17.1094 8.58979 16.7941C8.58979 16.4789 8.65331 16.1667 8.77673 15.8755C8.90014 15.5843 9.08103 15.3196 9.30908 15.0967L25.7722 2.39916ZM2.01941 6.2786C0.24673 9.05388 -0.390837 12.3802 0.233804 15.5945H1.22785V14.395C1.21448 12.033 1.93796 9.7231 3.30185 7.77328L2.01941 6.2786ZM13.5 3.22992e-07C11.6232 -0.000406337 9.76711 0.383192 8.0511 1.12612C6.33508 1.86905 4.79715 2.95485 3.53625 4.31369L4.94018 5.94992C6.60616 4.45252 8.78242 3.61445 11.0456 3.59874C13.321 3.61425 15.5082 4.46055 17.178 5.97151L21.5346 2.61029C19.2147 0.915586 16.3962 -9.28526e-05 13.5 3.22992e-07ZM21.8819 11.0361L21.596 11.3804L20.7026 12.496C20.807 13.1239 20.8607 13.7588 20.8633 14.395V15.5945H26.7662C27.3486 12.5925 26.8348 9.48582 25.3144 6.81602L21.8819 11.0361Z" fill="#4FBDBA"/>
</svg>
