<svg width="24" height="28" viewBox="0 0 24 28" fill="none" xmlns="http://www.w3.org/2000/svg">
<path d="M4 9.33333V8C4 5.87827 4.84285 3.84344 6.34315 2.34315C7.84344 0.842855 9.87827 0 12 0C14.1217 0 16.1566 0.842855 17.6569 2.34315C19.1571 3.84344 20 5.87827 20 8V9.33333H22.6667C23.0203 9.33333 23.3594 9.47381 23.6095 9.72386C23.8595 9.97391 24 10.313 24 10.6667V26.6667C24 27.0203 23.8595 27.3594 23.6095 27.6095C23.3594 27.8595 23.0203 28 22.6667 28H1.33333C0.979711 28 0.640573 27.8595 0.390524 27.6095C0.140476 27.3594 0 27.0203 0 26.6667V10.6667C0 10.313 0.140476 9.97391 0.390524 9.72386C0.640573 9.47381 0.979711 9.33333 1.33333 9.33333H4ZM21.3333 12H2.66667V25.3333H21.3333V12ZM10.6667 19.6427C10.1583 19.3491 9.76103 18.8961 9.53641 18.3538C9.31179 17.8114 9.27239 17.2101 9.42432 16.6431C9.57625 16.0761 9.91102 15.5751 10.3767 15.2178C10.8424 14.8604 11.413 14.6667 12 14.6667C12.587 14.6667 13.1576 14.8604 13.6233 15.2178C14.089 15.5751 14.4238 16.0761 14.5757 16.6431C14.7276 17.2101 14.6882 17.8114 14.4636 18.3538C14.239 18.8961 13.8417 19.3491 13.3333 19.6427V22.6667H10.6667V19.6427ZM6.66667 9.33333H17.3333V8C17.3333 6.58551 16.7714 5.22896 15.7712 4.22876C14.771 3.22857 13.4145 2.66667 12 2.66667C10.5855 2.66667 9.22896 3.22857 8.22876 4.22876C7.22857 5.22896 6.66667 6.58551 6.66667 8V9.33333Z" fill="#4FBDBA"/>
</svg>
