<svg width="21" height="26" viewBox="0 0 21 26" fill="none" xmlns="http://www.w3.org/2000/svg">
<path d="M10.4999 10.6C13.1233 10.6 15.2499 8.45097 15.2499 5.8C15.2499 3.14903 13.1233 1 10.4999 1C7.87659 1 5.74994 3.14903 5.74994 5.8C5.74994 8.45097 7.87659 10.6 10.4999 10.6Z" stroke="#4FBDBA" stroke-width="2"/>
<path d="M19.9964 20.2C20 20.0032 20 19.8028 20 19.6C20 16.618 15.7464 14.2 10.5 14.2C5.25362 14.2 1 16.618 1 19.6C1 22.582 1 25 10.5 25C13.1493 25 15.06 24.8116 16.4375 24.4756" stroke="#4FBDBA" stroke-width="2" stroke-linecap="round"/>
</svg>
